<svg xmlns="http://www.w3.org/2000/svg" viewBox="0 0 256 256" role="img" aria-label="AI Life Advisor">
  <defs>
    <linearGradient id="advisorGrad" x1="0" y1="0" x2="1" y2="1">
      <stop offset="0%" stop-color="#5B6CFF"/>
      <stop offset="100%" stop-color="#9B5BFF"/>
    </linearGradient>
  </defs>
  <rect width="256" height="256" rx="56" fill="url(#advisorGrad)"/>
  <path d="M60 84a32 32 0 0 1 32-32h72a32 32 0 0 1 32 32v52a32 32 0 0 1-32 32h-46l-30 28v-28h4a32 32 0 0 1-32-32V84Z" fill="#FAFAF7"/>
  <path d="M128 86l8 22 22 8-22 8-8 22-8-22-22-8 22-8 8-22Z" fill="#5B6CFF"/>
  <circle cx="170" cy="98" r="6" fill="#FFB347"/>
  <circle cx="92" cy="138" r="4" fill="#FFB347"/>
</svg>
