<svg xmlns="http://www.w3.org/2000/svg" viewBox="0 0 256 256" role="img" aria-label="ClearDoc">
  <rect width="256" height="256" rx="56" fill="#1A1A2E"/>
  <path d="M76 60h74l40 40v110a14 14 0 0 1-14 14H76a14 14 0 0 1-14-14V74a14 14 0 0 1 14-14Z" fill="#FAFAF7"/>
  <path d="M150 60v40h40Z" fill="#C8C8D4"/>
  <rect x="86" y="124" width="80" height="8" rx="4" fill="#1A1A2E"/>
  <rect x="86" y="144" width="100" height="8" rx="4" fill="#1A1A2E"/>
  <rect x="86" y="164" width="60" height="8" rx="4" fill="#1A1A2E"/>
  <circle cx="194" cy="186" r="28" fill="#00C853"/>
  <circle cx="194" cy="186" r="14" fill="none" stroke="#FAFAF7" stroke-width="6"/>
  <line x1="204" y1="196" x2="216" y2="208" stroke="#FAFAF7" stroke-width="6" stroke-linecap="round"/>
</svg>
